HIERARCHY
ROOT Hips
{
	OFFSET 0.000000 0.000000 0.000000 
	CHANNELS 6 Xposition Yposition Zposition Zrotation Yrotation Xrotation
	JOINT LeftUpLeg
	{
		OFFSET 1.363060 -1.794630 0.839290 
		CHANNELS 3 Zrotation Yrotation Xrotation
		JOINT LeftLeg
		{
			OFFSET 2.448110 -6.726130 0.000000 
			CHANNELS 3 Zrotation Yrotation Xrotation
			JOINT LeftFoot
			{
				OFFSET 2.562200 -7.039590 0.000000 
				CHANNELS 3 Zrotation Yrotation Xrotation
				JOINT LeftToeBase
				{
					OFFSET 0.157640 -0.433110 2.322550 
					CHANNELS 3 Zrotation Yrotation Xrotation
					End Site
					{
						OFFSET 0.000000 0.000000 0.000000 
					}
				}
			}
		}
	}
	JOINT RightUpLeg
	{
		OFFSET -1.305520 -1.794630 0.839290 
		CHANNELS 3 Zrotation Yrotation Xrotation
		JOINT RightLeg
		{
			OFFSET -2.542530 -6.985550 0.000000 
			CHANNELS 3 Zrotation Yrotation Xrotation
			JOINT RightFoot
			{
				OFFSET -2.568260 -7.056230 0.000000 
				CHANNELS 3 Zrotation Yrotation Xrotation
				JOINT RightToeBase
				{
					OFFSET -0.164730 -0.452590 2.363150 
					CHANNELS 3 Zrotation Yrotation Xrotation
					End Site
					{
						OFFSET 0.000000 0.000000 0.000000 
					}
				}
			}
		}
	}
	JOINT Spine
	{
		OFFSET 0.028270 2.035590 -0.193380 
		CHANNELS 3 Zrotation Yrotation Xrotation
		JOINT Spine1
		{
			OFFSET 0.056720 2.048850 -0.042750 
			CHANNELS 3 Zrotation Yrotation Xrotation
			JOINT Neck1
			{
				OFFSET -0.054170 1.746240 0.172020 
				CHANNELS 3 Zrotation Yrotation Xrotation
				JOINT Head
				{
					OFFSET 0.104070 1.761360 -0.123970 
					CHANNELS 3 Zrotation Yrotation Xrotation
					End Site
					{
						OFFSET 0.000000 0.000000 0.000000 
					}
				}
			}
			JOINT LeftArm
			{
				OFFSET 3.362410 1.200890 -0.311210 
				CHANNELS 3 Zrotation Yrotation Xrotation
				JOINT LeftForeArm
				{
					OFFSET 4.983000 -0.000000 -0.000000 
					CHANNELS 3 Zrotation Yrotation Xrotation
					JOINT LeftHand
					{
						OFFSET 3.483560 -0.000000 -0.000000 
						CHANNELS 3 Zrotation Yrotation Xrotation
						JOINT LeftHandIndex1
						{
							OFFSET 0.715260 -0.000000 -0.000000 
							CHANNELS 3 Zrotation Yrotation Xrotation
							End Site
							{
								OFFSET 0.000000 0.000000 0.000000 
							}
						}
					}
				}
			}
			JOINT RightArm
			{
				OFFSET -3.136600 1.374050 -0.404650 
				CHANNELS 3 Zrotation Yrotation Xrotation
				JOINT RightForeArm
				{
					OFFSET -5.241900 -0.000000 -0.000000 
					CHANNELS 3 Zrotation Yrotation Xrotation
					JOINT RightHand
					{
						OFFSET -3.444170 -0.000000 -0.000000 
						CHANNELS 3 Zrotation Yrotation Xrotation
						JOINT RightHandIndex1
						{
							OFFSET -0.622530 -0.000000 -0.000000 
							CHANNELS 3 Zrotation Yrotation Xrotation
							End Site
							{
								OFFSET 0.000000 0.000000 0.000000 
							}
						}
					}
				}
			}
		}
	}
}
MOTION
Frames: 16
Frame Time: 0.041667
-0.098780 17.575853 -0.041302 1.231068 5.723003 17.656106 -17.333431 3.729290 -15.851502 0.141869 8.855852 23.947441 3.703336 -16.233367 -9.211620 0.026900 -1.058700 -2.910300 14.322770 3.795019 -44.560957 -0.912722 -11.907444 30.227137 0.517577 -4.787060 -4.055756 -0.946500 6.196000 -17.354100 0.905281 -2.092104 -9.428154 0.019660 -0.867862 -1.404063 6.810107 -3.285973 12.035640 1.708100 -1.327700 4.253500 -95.856768 -11.156002 41.038792 17.713369 -35.185207 -5.342725 -0.093420 -0.679006 -4.763385 -7.125000 0.000000 0.000000 102.598504 -15.861570 -64.008261 -2.603798 7.776547 0.338896 -1.284073 0.949828 73.532370 7.125000 0.000000 0.000000 
-0.077212 17.528404 0.247596 0.933030 5.206047 17.319224 -17.153508 4.706213 -14.488057 0.083487 8.608152 23.289666 3.755174 -16.067774 -9.824614 0.051100 -1.459000 -4.012800 14.689008 3.750931 -44.088139 -0.338975 -11.011902 27.438468 0.305594 -3.693955 -3.732678 -0.948300 6.201800 -17.371000 0.843129 -1.667381 -9.210685 -0.207210 -0.690381 -0.769795 6.749129 -3.369542 11.897266 1.690400 -1.378300 4.097700 -95.772140 -12.075964 41.790627 18.723504 -36.437196 -5.907678 -0.100244 -0.631163 -4.419731 -7.125000 0.000000 0.000000 102.563048 -16.619416 -70.366095 -2.966769 7.856186 0.310470 -1.085385 1.087207 78.191271 7.125000 0.000000 0.000000 
-0.112151 17.504141 0.433293 1.362251 6.742715 17.827571 -16.939788 4.381729 -14.060931 -0.018248 8.354005 22.560477 3.845453 -17.176588 -9.430222 0.074000 -1.755200 -4.829700 13.926611 3.456837 -44.547917 0.150285 -10.095686 24.654802 0.361080 -4.046419 -3.249444 -0.716300 5.408400 -15.077100 0.987768 -2.324658 -9.361712 0.247693 -0.985426 -1.104608 6.789147 -3.408070 11.697420 1.710000 -1.404300 4.019100 -95.644660 -13.048581 42.496513 19.619446 -37.442339 -6.389838 -0.130191 -0.593611 -4.524310 -7.125000 0.000000 0.000000 102.529115 -17.452179 -76.734622 -3.355860 7.934163 0.282700 -0.845448 1.192396 82.604552 7.125000 0.000000 0.000000 
-0.116357 17.477721 0.670320 1.621492 7.153878 17.963147 -16.967339 4.536853 -13.068932 -0.129719 8.055748 21.743402 3.851677 -17.363188 -9.399679 0.128400 -2.309600 -6.362100 13.415723 3.437345 -44.583217 0.541743 -9.255368 22.174167 0.219079 -3.359275 -2.709089 -0.582300 4.886000 -13.583800 0.983813 -2.404668 -9.368759 0.339314 -1.029045 -1.078574 6.835431 -3.457704 11.580455 1.745600 -1.432300 3.989400 -95.542031 -13.936934 43.217803 20.490828 -38.396583 -6.861304 -0.153178 -0.569939 -4.962322 -7.125000 0.000000 0.000000 102.501594 -18.346899 -76.722603 -3.358925 8.013040 0.269649 -0.821741 1.183704 80.994308 7.125000 0.000000 0.000000 
-0.117543 17.461006 0.906593 1.902583 7.636190 18.269307 -16.970615 4.283379 -12.120565 -0.243844 7.768408 20.979730 3.813669 -17.737574 -8.861966 0.102400 -2.063700 -5.681800 13.096504 3.116201 -44.917154 0.848532 -8.479905 19.946183 0.031323 -2.426038 -2.110303 -0.542100 4.717200 -13.103800 1.002340 -2.591966 -9.418357 0.425514 -1.125410 -1.070048 6.829568 -3.471944 11.571545 1.740200 -1.439600 3.985300 -95.405771 -14.406722 43.657280 21.730326 -39.695443 -7.557244 -0.143720 -0.537518 -5.397326 -7.125000 0.000000 0.000000 102.444799 -19.300219 -75.639593 -3.312464 8.079889 0.279637 -0.890302 1.148212 78.847739 7.125000 0.000000 0.000000 
-0.116249 17.450977 1.145239 2.150895 8.390513 18.553995 -16.839341 3.769666 -11.054824 -0.357348 7.480747 20.233754 3.751985 -18.217405 -8.036971 0.055000 -1.513600 -4.163200 13.035337 2.340650 -45.290577 1.084543 -7.771451 17.969360 -0.186337 -1.314474 -1.397227 -0.508900 4.572700 -12.693600 1.044378 -2.920751 -9.454626 0.411778 -1.305836 -1.000497 6.699154 -3.463864 11.596424 1.638900 -1.430200 4.030200 -95.319454 -15.005352 43.775345 22.910701 -40.883934 -8.245443 -0.137116 -0.505031 -5.710307 -7.125000 0.000000 0.000000 102.490339 -20.305940 -72.110916 -3.237790 8.337409 0.294636 -1.094766 1.028509 74.495475 7.125000 0.000000 0.000000 
-0.121425 17.425419 1.380649 2.173659 9.098349 18.864088 -16.469281 3.286491 -10.058549 -0.451715 7.235645 19.565279 3.772247 -17.768119 -8.489926 0.140800 -2.418600 -6.664100 13.415483 1.582045 -45.875841 1.263514 -7.181729 16.335926 -0.390921 -0.232077 -0.721677 -0.760800 5.570500 -15.543200 1.104003 -3.177816 -9.482563 0.375567 -1.450127 -0.893946 6.537678 -3.495053 11.599481 1.528500 -1.442400 4.089100 -95.308148 -15.725096 43.845211 23.926824 -41.867178 -8.848343 -0.135782 -0.480670 -5.946630 -7.125000 0.000000 0.000000 102.534220 -20.988906 -70.754863 -3.249102 8.512059 0.301469 -1.199649 0.947541 72.273101 7.125000 0.000000 0.000000 
-0.132748 17.384657 1.618970 2.144196 9.566664 19.161515 -16.125967 2.970218 -9.140107 -0.548157 6.994128 18.936024 3.714065 -16.944027 -8.608935 0.352700 -3.815700 -10.558800 13.885082 1.107493 -46.527199 1.386672 -6.740581 15.108854 -0.576694 0.809045 -0.343789 -1.169900 6.865900 -19.318600 1.161748 -3.327453 -9.484030 0.395050 -1.534788 -0.706190 6.446144 -3.464976 11.561704 1.469900 -1.427900 4.085000 -95.245186 -16.169052 44.032959 25.116117 -42.972030 -9.561695 -0.125697 -0.456969 -6.331201 -7.125000 0.000000 0.000000 102.471753 -21.242804 -73.241697 -3.346768 8.430039 0.304957 -1.152527 0.982148 73.944032 7.125000 0.000000 0.000000 
-0.131886 17.357158 1.868076 2.282684 10.083526 19.320703 -15.971702 2.750606 -8.141588 -0.624842 6.789740 18.405026 3.652424 -16.086986 -8.958008 0.831000 -5.815700 -16.250700 14.036716 0.536982 -46.912881 1.438240 -6.453295 14.328871 -0.860306 2.504657 -0.086293 -0.769000 5.599600 -15.627000 1.184278 -3.534782 -9.485536 0.282890 -1.658690 -0.620586 6.374892 -3.352956 11.346580 1.432800 -1.381600 3.893600 -95.087550 -16.328995 44.173231 26.393477 -44.098180 -10.338492 -0.110999 -0.438926 -6.936025 -7.125000 0.000000 0.000000 102.343608 -21.641764 -75.303984 -3.418349 8.375469 0.288513 -1.075500 1.012791 75.458008 7.125000 0.000000 0.000000 
-0.119700 17.340659 2.119338 2.276157 10.632302 19.273836 -15.669247 2.411323 -6.931448 -0.665473 6.605331 17.988451 3.592881 -16.753650 -7.883923 0.582100 -4.885300 -13.581700 14.405989 -0.193122 -47.107132 1.453222 -6.292082 13.910556 -1.155831 4.410828 0.200409 -0.354500 3.825100 -10.585200 1.225094 -3.776180 -9.511724 0.084182 -1.799441 -0.752367 6.209920 -3.254853 11.098832 1.367800 -1.349000 3.688700 -95.003767 -16.451192 44.129911 27.501731 -45.020829 -11.024293 -0.090678 -0.427688 -7.693965 -7.125000 0.000000 0.000000 102.120617 -22.425030 -73.887457 -3.338188 8.422961 0.263005 -1.078285 0.964985 73.681015 7.125000 0.000000 0.000000 
-0.129837 17.304533 2.372326 2.857934 10.253418 19.445546 -16.198544 2.020488 -5.868533 -0.730599 6.463907 17.643192 3.436453 -16.533002 -7.128817 0.541600 -4.715000 -13.097300 13.317960 0.748706 -46.787543 1.445222 -6.260306 13.772124 -1.166324 4.458705 0.176728 -0.304400 3.547100 -9.805900 1.187831 -3.731533 -9.568462 0.339276 -1.761292 -0.889272 6.007741 -3.185379 11.042422 1.254500 -1.320200 3.662500 -94.932167 -16.449585 44.047911 28.643062 -45.934070 -11.740936 -0.070488 -0.410019 -8.239259 -7.125000 0.000000 0.000000 101.880226 -23.097435 -72.716755 -3.281409 8.454825 0.246005 -1.083604 0.917766 72.152564 7.125000 0.000000 0.000000 
-0.124661 17.273799 2.628118 2.694894 10.282820 19.546487 -15.893307 1.501216 -4.939168 -0.762969 6.367747 17.453899 3.337854 -16.387245 -6.344035 0.676300 -5.258600 -14.647700 13.431169 1.109976 -46.783600 1.431257 -6.354118 13.984162 -1.209932 4.802008 -0.017727 -0.360600 3.857900 -10.677300 1.213008 -3.735256 -9.587096 0.163479 -1.779199 -0.877267 5.825350 -3.078259 11.044796 1.154800 -1.268500 3.679900 -94.810249 -16.319032 43.948357 29.883722 -46.882926 -12.528928 -0.060001 -0.398000 -8.504718 -7.125000 0.000000 0.000000 101.669547 -23.407223 -73.651167 -3.301450 8.398682 0.235260 -1.048321 0.920960 72.888320 7.125000 0.000000 0.000000 
-0.109132 17.250506 2.900947 2.133986 10.578628 19.469842 -15.108740 1.104405 -3.932058 -0.754974 6.306562 17.410317 3.271314 -17.026112 -4.927592 0.532000 -4.674000 -12.981100 14.285579 0.984920 -46.829281 1.390829 -6.596803 14.617313 -1.296295 5.464967 -0.490607 -0.419900 4.159100 -11.524600 1.294272 -3.835078 -9.551906 -0.209204 -1.859673 -0.694670 5.638279 -2.908486 11.078041 1.072100 -1.186900 3.707100 -94.740282 -16.207709 43.619664 30.951079 -47.676147 -13.232253 -0.046722 -0.384984 -8.787806 -7.125000 0.000000 0.000000 101.440759 -23.683674 -73.372193 -3.273301 8.379134 0.233495 -1.052124 0.909184 72.620968 7.125000 0.000000 0.000000 
-0.101907 17.221390 3.181326 1.700929 10.669943 19.285644 -14.501489 0.878968 -2.801524 -0.722247 6.326531 17.532888 3.232052 -16.627352 -4.893383 0.901000 -6.049200 -16.927300 14.613994 1.497322 -46.483620 1.347167 -6.939065 15.502753 -1.031648 3.766252 0.146331 -2.487300 9.814700 -28.378800 1.371050 -3.870496 -9.548100 -0.386461 -1.885734 -0.676450 5.437457 -2.772616 11.127113 0.993300 -1.126100 3.718600 -94.750411 -15.753320 43.180879 32.081656 -48.480571 -13.983839 -0.045154 -0.368573 -9.043671 -7.125000 0.000000 0.000000 101.231454 -24.241796 -70.641892 -3.193598 8.535910 0.220463 -1.108237 0.838217 69.974508 7.125000 0.000000 0.000000 
-0.099319 17.193891 3.458038 1.583284 10.607723 19.281159 -14.303986 0.488279 -1.738676 -0.721875 6.333036 17.586380 3.136581 -15.489203 -5.215544 1.636800 -8.064700 -22.910700 14.792689 1.901783 -46.485064 1.232305 -7.408415 16.753348 -0.904463 3.032372 0.948115 -3.225000 11.050700 -32.451100 1.402117 -3.855899 -9.529693 -0.488849 -1.885611 -0.508585 5.282920 -2.665768 11.186474 0.945000 -1.079200 3.757300 -94.698982 -15.125505 42.836522 33.419472 -49.391386 -14.866882 -0.031516 -0.362562 -9.312706 -7.125000 0.000000 0.000000 101.088402 -24.618804 -68.414623 -3.154266 8.722769 0.202010 -1.142531 0.781708 67.893537 7.125000 0.000000 0.000000 
-0.094790 17.186882 3.733887 1.453163 10.442731 19.400507 -14.186256 -0.134348 -0.915831 -0.745228 6.305131 17.604801 2.963004 -15.255001 -3.634367 1.538600 -7.830500 -22.200400 15.181158 2.117077 -46.897219 1.051758 -7.980219 18.338655 -0.891184 3.037719 3.175066 -2.648300 10.102700 -29.310100 1.427675 -3.817822 -9.495010 -0.648056 -1.878142 -0.195905 5.100666 -2.518387 11.343757 0.884700 -1.008900 3.931100 -94.660075 -14.625076 42.502727 34.611129 -50.173107 -15.679289 -0.018521 -0.348322 -9.651493 -7.125000 0.000000 0.000000 100.885911 -24.520287 -68.849935 -3.169481 8.709951 0.192971 -1.109351 0.802161 68.398223 7.125000 0.000000 0.000000 
